<mxfile host="app.diagrams.net" modified="2024-04-21T00:53:52.737Z" agent="Mozilla/5.0 (Macintosh; Intel Mac OS X 10_15_7) AppleWebKit/537.36 (KHTML, like Gecko) Chrome/124.0.0.0 Safari/537.36" etag="JxstdOihE3dZUhNXmHLB" version="24.1.0" type="device">
  <diagram name="Page-1" id="miOQwxR0OeAAcdIde7EI">
    <mxGraphModel dx="1026" dy="604" grid="1" gridSize="10" guides="1" tooltips="1" connect="1" arrows="1" fold="1" page="1" pageScale="1" pageWidth="850" pageHeight="1100" math="0" shadow="0">
      <root>
        <mxCell id="0" />
        <mxCell id="1" parent="0" />
        <mxCell id="BsSFlwluoJcDmJtxHJr6-1" value="" style="rounded=0;whiteSpace=wrap;html=1;" vertex="1" parent="1">
          <mxGeometry x="40" y="120" width="780" height="570" as="geometry" />
        </mxCell>
        <mxCell id="BsSFlwluoJcDmJtxHJr6-29" style="edgeStyle=orthogonalEdgeStyle;rounded=0;orthogonalLoop=1;jettySize=auto;html=1;entryX=0.5;entryY=0;entryDx=0;entryDy=0;fillColor=#008a00;strokeColor=#005700;" edge="1" parent="1" source="BsSFlwluoJcDmJtxHJr6-2" target="BsSFlwluoJcDmJtxHJr6-5">
          <mxGeometry relative="1" as="geometry">
            <Array as="points">
              <mxPoint x="440" y="290" />
              <mxPoint x="190" y="290" />
            </Array>
          </mxGeometry>
        </mxCell>
        <mxCell id="BsSFlwluoJcDmJtxHJr6-30" style="edgeStyle=orthogonalEdgeStyle;rounded=0;orthogonalLoop=1;jettySize=auto;html=1;fillColor=#60a917;strokeColor=#2D7600;" edge="1" parent="1" source="BsSFlwluoJcDmJtxHJr6-2" target="BsSFlwluoJcDmJtxHJr6-7">
          <mxGeometry relative="1" as="geometry">
            <Array as="points">
              <mxPoint x="440" y="290" />
              <mxPoint x="680" y="290" />
            </Array>
          </mxGeometry>
        </mxCell>
        <mxCell id="BsSFlwluoJcDmJtxHJr6-31" style="edgeStyle=orthogonalEdgeStyle;rounded=0;orthogonalLoop=1;jettySize=auto;html=1;entryX=0.5;entryY=0;entryDx=0;entryDy=0;fillColor=#60a917;strokeColor=#2D7600;" edge="1" parent="1" source="BsSFlwluoJcDmJtxHJr6-2" target="BsSFlwluoJcDmJtxHJr6-6">
          <mxGeometry relative="1" as="geometry" />
        </mxCell>
        <mxCell id="BsSFlwluoJcDmJtxHJr6-2" value="gateway" style="rounded=0;whiteSpace=wrap;html=1;fillColor=#008a00;fontColor=#ffffff;strokeColor=#005700;" vertex="1" parent="1">
          <mxGeometry x="380" y="180" width="120" height="60" as="geometry" />
        </mxCell>
        <mxCell id="BsSFlwluoJcDmJtxHJr6-3" value="config" style="rounded=0;whiteSpace=wrap;html=1;fillColor=#f0a30a;fontColor=#000000;strokeColor=#BD7000;" vertex="1" parent="1">
          <mxGeometry x="130" y="180" width="120" height="60" as="geometry" />
        </mxCell>
        <mxCell id="BsSFlwluoJcDmJtxHJr6-4" value="discovery" style="rounded=0;whiteSpace=wrap;html=1;fillColor=#76608a;fontColor=#ffffff;strokeColor=#432D57;" vertex="1" parent="1">
          <mxGeometry x="620" y="180" width="120" height="60" as="geometry" />
        </mxCell>
        <mxCell id="BsSFlwluoJcDmJtxHJr6-5" value="accounts-api" style="rounded=0;whiteSpace=wrap;html=1;verticalAlign=top;" vertex="1" parent="1">
          <mxGeometry x="100" y="390" width="180" height="140" as="geometry" />
        </mxCell>
        <mxCell id="BsSFlwluoJcDmJtxHJr6-33" style="edgeStyle=orthogonalEdgeStyle;rounded=0;orthogonalLoop=1;jettySize=auto;html=1;entryX=0.75;entryY=1;entryDx=0;entryDy=0;fillColor=#76608a;strokeColor=#432D57;" edge="1" parent="1" source="BsSFlwluoJcDmJtxHJr6-6" target="BsSFlwluoJcDmJtxHJr6-4">
          <mxGeometry relative="1" as="geometry">
            <Array as="points">
              <mxPoint x="460" y="350" />
              <mxPoint x="710" y="350" />
            </Array>
          </mxGeometry>
        </mxCell>
        <mxCell id="BsSFlwluoJcDmJtxHJr6-36" style="edgeStyle=orthogonalEdgeStyle;rounded=0;orthogonalLoop=1;jettySize=auto;html=1;entryX=0.25;entryY=1;entryDx=0;entryDy=0;fillColor=#f0a30a;strokeColor=#BD7000;" edge="1" parent="1" source="BsSFlwluoJcDmJtxHJr6-6" target="BsSFlwluoJcDmJtxHJr6-3">
          <mxGeometry relative="1" as="geometry">
            <Array as="points">
              <mxPoint x="410" y="370" />
              <mxPoint x="160" y="370" />
            </Array>
          </mxGeometry>
        </mxCell>
        <mxCell id="BsSFlwluoJcDmJtxHJr6-6" value="cards-api" style="rounded=0;whiteSpace=wrap;html=1;verticalAlign=top;" vertex="1" parent="1">
          <mxGeometry x="350" y="390" width="180" height="140" as="geometry" />
        </mxCell>
        <mxCell id="BsSFlwluoJcDmJtxHJr6-32" style="edgeStyle=orthogonalEdgeStyle;rounded=0;orthogonalLoop=1;jettySize=auto;html=1;fillColor=#76608a;strokeColor=#432D57;" edge="1" parent="1" source="BsSFlwluoJcDmJtxHJr6-7" target="BsSFlwluoJcDmJtxHJr6-4">
          <mxGeometry relative="1" as="geometry">
            <Array as="points">
              <mxPoint x="720" y="310" />
              <mxPoint x="720" y="310" />
            </Array>
          </mxGeometry>
        </mxCell>
        <mxCell id="BsSFlwluoJcDmJtxHJr6-7" value="employees-api" style="rounded=0;whiteSpace=wrap;html=1;verticalAlign=top;" vertex="1" parent="1">
          <mxGeometry x="590" y="390" width="180" height="140" as="geometry" />
        </mxCell>
        <mxCell id="BsSFlwluoJcDmJtxHJr6-8" value="primary" style="shape=cylinder3;whiteSpace=wrap;html=1;boundedLbl=1;backgroundOutline=1;size=15;fillColor=#a20025;fontColor=#ffffff;strokeColor=#6F0000;" vertex="1" parent="1">
          <mxGeometry x="120" y="430" width="50" height="60" as="geometry" />
        </mxCell>
        <mxCell id="BsSFlwluoJcDmJtxHJr6-9" value="replica" style="shape=cylinder3;whiteSpace=wrap;html=1;boundedLbl=1;backgroundOutline=1;size=15;fillColor=#a20025;fontColor=#ffffff;strokeColor=#6F0000;" vertex="1" parent="1">
          <mxGeometry x="210" y="430" width="50" height="60" as="geometry" />
        </mxCell>
        <mxCell id="BsSFlwluoJcDmJtxHJr6-10" value="primary" style="shape=cylinder3;whiteSpace=wrap;html=1;boundedLbl=1;backgroundOutline=1;size=15;fillColor=#a20025;fontColor=#ffffff;strokeColor=#6F0000;" vertex="1" parent="1">
          <mxGeometry x="370" y="430" width="50" height="60" as="geometry" />
        </mxCell>
        <mxCell id="BsSFlwluoJcDmJtxHJr6-11" value="replica" style="shape=cylinder3;whiteSpace=wrap;html=1;boundedLbl=1;backgroundOutline=1;size=15;fillColor=#a20025;fontColor=#ffffff;strokeColor=#6F0000;" vertex="1" parent="1">
          <mxGeometry x="460" y="430" width="50" height="60" as="geometry" />
        </mxCell>
        <mxCell id="BsSFlwluoJcDmJtxHJr6-12" value="primary" style="shape=cylinder3;whiteSpace=wrap;html=1;boundedLbl=1;backgroundOutline=1;size=15;fillColor=#a20025;fontColor=#ffffff;strokeColor=#6F0000;" vertex="1" parent="1">
          <mxGeometry x="610" y="430" width="50" height="60" as="geometry" />
        </mxCell>
        <mxCell id="BsSFlwluoJcDmJtxHJr6-13" value="replica" style="shape=cylinder3;whiteSpace=wrap;html=1;boundedLbl=1;backgroundOutline=1;size=15;fillColor=#a20025;fontColor=#ffffff;strokeColor=#6F0000;" vertex="1" parent="1">
          <mxGeometry x="700" y="430" width="50" height="60" as="geometry" />
        </mxCell>
        <mxCell id="BsSFlwluoJcDmJtxHJr6-27" value="message broker" style="sketch=0;outlineConnect=0;fontColor=#232F3E;gradientColor=none;fillColor=#E7157B;strokeColor=none;dashed=0;verticalLabelPosition=bottom;verticalAlign=top;align=center;html=1;fontSize=12;fontStyle=0;aspect=fixed;pointerEvents=1;shape=mxgraph.aws4.mq_broker;" vertex="1" parent="1">
          <mxGeometry x="310" y="580" width="78" height="69" as="geometry" />
        </mxCell>
        <mxCell id="BsSFlwluoJcDmJtxHJr6-28" value="cache" style="image;sketch=0;aspect=fixed;html=1;points=[];align=center;fontSize=12;image=img/lib/mscae/Cache_Redis_Product.svg;" vertex="1" parent="1">
          <mxGeometry x="510" y="593.5" width="50" height="42" as="geometry" />
        </mxCell>
        <mxCell id="BsSFlwluoJcDmJtxHJr6-34" style="edgeStyle=orthogonalEdgeStyle;rounded=0;orthogonalLoop=1;jettySize=auto;html=1;entryX=0.65;entryY=0.975;entryDx=0;entryDy=0;entryPerimeter=0;fillColor=#76608a;strokeColor=#432D57;" edge="1" parent="1" source="BsSFlwluoJcDmJtxHJr6-5" target="BsSFlwluoJcDmJtxHJr6-4">
          <mxGeometry relative="1" as="geometry">
            <Array as="points">
              <mxPoint x="210" y="340" />
              <mxPoint x="698" y="340" />
            </Array>
          </mxGeometry>
        </mxCell>
        <mxCell id="BsSFlwluoJcDmJtxHJr6-35" style="edgeStyle=orthogonalEdgeStyle;rounded=0;orthogonalLoop=1;jettySize=auto;html=1;entryX=0.117;entryY=1.025;entryDx=0;entryDy=0;entryPerimeter=0;fillColor=#f0a30a;strokeColor=#BD7000;" edge="1" parent="1" source="BsSFlwluoJcDmJtxHJr6-5" target="BsSFlwluoJcDmJtxHJr6-3">
          <mxGeometry relative="1" as="geometry">
            <Array as="points">
              <mxPoint x="144" y="340" />
              <mxPoint x="144" y="340" />
            </Array>
          </mxGeometry>
        </mxCell>
        <mxCell id="BsSFlwluoJcDmJtxHJr6-37" style="edgeStyle=orthogonalEdgeStyle;rounded=0;orthogonalLoop=1;jettySize=auto;html=1;entryX=0.35;entryY=0.992;entryDx=0;entryDy=0;entryPerimeter=0;fillColor=#f0a30a;strokeColor=#BD7000;" edge="1" parent="1" source="BsSFlwluoJcDmJtxHJr6-7" target="BsSFlwluoJcDmJtxHJr6-3">
          <mxGeometry relative="1" as="geometry">
            <Array as="points">
              <mxPoint x="640" y="360" />
              <mxPoint x="172" y="360" />
            </Array>
          </mxGeometry>
        </mxCell>
      </root>
    </mxGraphModel>
  </diagram>
</mxfile>
